#Comment line ignore any data following # character 
#Hierarchical Translation and Rotation (.htr) file 
[Header]	
#Header keywords are followed by a single value 
FileType HTR		#Single word string
DataType HTRS		#Translation followed by rotation and scale data
FileVersion 1		#integer
NumSegments 84		#integer
NumFrames 2		#integer
DataFrameRate 30		#integer, data frame rate in this file
EulerRotationOrder ZYX
CalibrationUnits mm
RotationUnits Degrees
GlobalAxisofGravity Y
BoneLengthAxis Y
ScaleFactor 1.00
[SegmentNames&Hierarchy]
#CHILD	PARENT
MASTER GLOBAL
root MASTER
chest root
L_mid_tent01 root
R_mid_tent01 root
spine01 root
Bip01_Neck chest
L_humerus chest
R_humerus chest
weapon_bone chest
Bip01_Head Bip01_Neck
eye_left_bone Bip01_Head
eye_right_bone Bip01_Head
L_forearm L_humerus
L_front_hand L_forearm
L_weapon_bone L_forearm
L_front_hand01_01 L_front_hand
L_front_hand02_01 L_front_hand
L_front_hand03_01 L_front_hand
L_front_hand01_02 L_front_hand01_01
L_front_hand02_02 L_front_hand02_01
L_front_hand03_02 L_front_hand03_01
R_forearm R_humerus
R_front_hand R_forearm
R_weapon_bone R_forearm
R_front_hand01_01 R_front_hand
R_front_hand02_01 R_front_hand
R_front_hand03_01 R_front_hand
R_front_hand01_02 R_front_hand01_01
R_front_hand02_02 R_front_hand02_01
R_front_hand03_02 R_front_hand03_01
null_rope01_connect L_mid_tent01
Rope1_Seg01 null_rope01_connect
Rope1_Seg02 Rope1_Seg01
Rope1_Seg03 Rope1_Seg02
Rope1_Seg04 Rope1_Seg03
Rope1_Seg05 Rope1_Seg04
Rope1_Seg06 Rope1_Seg05
Rope1_Seg07 Rope1_Seg06
Rope1_Seg09 Rope1_Seg07
L_mid_hand01 Rope1_Seg09
L_mid_hand02 Rope1_Seg09
L_mid_hand03 Rope1_Seg09
null_rope02_connect R_mid_tent01
Rope2_Seg01 null_rope02_connect
Rope2_Seg02 Rope2_Seg01
Rope2_Seg03 Rope2_Seg02
Rope2_Seg04 Rope2_Seg03
Rope2_Seg05 Rope2_Seg04
Rope2_Seg06 Rope2_Seg05
Rope2_Seg07 Rope2_Seg06
Rope2_Seg09 Rope2_Seg07
R_mid_hand01 Rope2_Seg09
R_mid_hand02 Rope2_Seg09
R_mid_hand03 Rope2_Seg09
spine02 spine01
spine03 spine02
pelvis spine03
null_rope03_connect pelvis
null_rope04_connect pelvis
Rope3_Seg01 null_rope03_connect
Rope3_Seg02 Rope3_Seg01
Rope3_Seg03 Rope3_Seg02
Rope3_Seg04 Rope3_Seg03
Rope3_Seg05 Rope3_Seg04
Rope3_Seg06 Rope3_Seg05
Rope3_Seg07 Rope3_Seg06
Rope3_Seg08 Rope3_Seg07
Rope3_Seg09 Rope3_Seg08
R_rear_hand01 Rope3_Seg09
R_rear_hand02 Rope3_Seg09
R_rear_hand03 Rope3_Seg09
Rope4_Seg01 null_rope04_connect
Rope4_Seg02 Rope4_Seg01
Rope4_Seg03 Rope4_Seg02
Rope4_Seg04 Rope4_Seg03
Rope4_Seg05 Rope4_Seg04
Rope4_Seg06 Rope4_Seg05
Rope4_Seg07 Rope4_Seg06
Rope4_Seg08 Rope4_Seg07
Rope4_Seg09 Rope4_Seg08
L_rear_hand01 Rope4_Seg09
L_rear_hand02 Rope4_Seg09
L_rear_hand03 Rope4_Seg09
[BasePosition]
#SegmentName Tx, Ty, Tz, Rx, Ry, Rz, BoneLength
MASTER 0.000000 0.000000 0.000000 -90.000000 0.000000 0.000000 10.000000 
root 0.000000 0.000000 0.000000 0.000000 0.000000 0.000000 10.000000 
chest 0.000000 0.000000 0.000000 0.000000 0.000000 0.000000 10.000000 
L_mid_tent01 0.000000 0.000000 0.000000 0.000000 0.000000 0.000000 10.000000 
R_mid_tent01 0.000000 0.000000 0.000000 0.000000 0.000000 0.000000 10.000000 
spine01 0.000000 0.000000 0.000000 0.000000 0.000000 0.000000 10.000000 
Bip01_Neck 0.000000 0.000000 0.000000 0.000000 0.000000 0.000000 10.000000 
L_humerus 0.000000 0.000000 0.000000 0.000000 0.000000 0.000000 10.000000 
R_humerus 0.000000 0.000000 0.000000 0.000000 0.000000 0.000000 10.000000 
weapon_bone 0.000000 0.000000 0.000000 0.000000 0.000000 0.000000 10.000000 
Bip01_Head 0.000000 0.000000 0.000000 0.000000 0.000000 0.000000 10.000000 
eye_left_bone 0.000000 0.000000 0.000000 0.000000 0.000000 0.000000 10.000000 
eye_right_bone 0.000000 0.000000 0.000000 0.000000 0.000000 0.000000 10.000000 
L_forearm 0.000000 0.000000 0.000000 0.000000 0.000000 0.000000 10.000000 
L_front_hand 0.000000 0.000000 0.000000 0.000000 0.000000 0.000000 10.000000 
L_weapon_bone 0.000000 0.000000 0.000000 0.000000 0.000000 0.000000 10.000000 
L_front_hand01_01 0.000000 0.000000 0.000000 0.000000 0.000000 0.000000 10.000000 
L_front_hand02_01 0.000000 0.000000 0.000000 0.000000 0.000000 0.000000 10.000000 
L_front_hand03_01 0.000000 0.000000 0.000000 0.000000 0.000000 0.000000 10.000000 
L_front_hand01_02 0.000000 0.000000 0.000000 0.000000 0.000000 0.000000 10.000000 
L_front_hand02_02 0.000000 0.000000 0.000000 0.000000 0.000000 0.000000 10.000000 
L_front_hand03_02 0.000000 0.000000 0.000000 0.000000 0.000000 0.000000 10.000000 
R_forearm 0.000000 0.000000 0.000000 0.000000 0.000000 0.000000 10.000000 
R_front_hand 0.000000 0.000000 0.000000 0.000000 0.000000 0.000000 10.000000 
R_weapon_bone 0.000000 0.000000 0.000000 0.000000 0.000000 0.000000 10.000000 
R_front_hand01_01 0.000000 0.000000 0.000000 0.000000 0.000000 0.000000 10.000000 
R_front_hand02_01 0.000000 0.000000 0.000000 0.000000 0.000000 0.000000 10.000000 
R_front_hand03_01 0.000000 0.000000 0.000000 0.000000 0.000000 0.000000 10.000000 
R_front_hand01_02 0.000000 0.000000 0.000000 0.000000 0.000000 0.000000 10.000000 
R_front_hand02_02 0.000000 0.000000 0.000000 0.000000 0.000000 0.000000 10.000000 
R_front_hand03_02 0.000000 0.000000 0.000000 0.000000 0.000000 0.000000 10.000000 
null_rope01_connect 0.000000 0.000000 0.000000 0.000000 0.000000 0.000000 10.000000 
Rope1_Seg01 0.000000 0.000000 0.000000 0.000000 0.000000 0.000000 10.000000 
Rope1_Seg02 0.000000 0.000000 0.000000 0.000000 0.000000 0.000000 10.000000 
Rope1_Seg03 0.000000 0.000000 0.000000 0.000000 0.000000 0.000000 10.000000 
Rope1_Seg04 0.000000 0.000000 0.000000 0.000000 0.000000 0.000000 10.000000 
Rope1_Seg05 0.000000 0.000000 0.000000 0.000000 0.000000 0.000000 10.000000 
Rope1_Seg06 0.000000 0.000000 0.000000 0.000000 0.000000 0.000000 10.000000 
Rope1_Seg07 0.000000 0.000000 0.000000 0.000000 0.000000 0.000000 10.000000 
Rope1_Seg09 0.000000 0.000000 0.000000 0.000000 0.000000 0.000000 10.000000 
L_mid_hand01 0.000000 0.000000 0.000000 0.000000 0.000000 0.000000 10.000000 
L_mid_hand02 0.000000 0.000000 0.000000 0.000000 0.000000 0.000000 10.000000 
L_mid_hand03 0.000000 0.000000 0.000000 0.000000 0.000000 0.000000 10.000000 
null_rope02_connect 0.000000 0.000000 0.000000 0.000000 0.000000 0.000000 10.000000 
Rope2_Seg01 0.000000 0.000000 0.000000 0.000000 0.000000 0.000000 10.000000 
Rope2_Seg02 0.000000 0.000000 0.000000 0.000000 0.000000 0.000000 10.000000 
Rope2_Seg03 0.000000 0.000000 0.000000 0.000000 0.000000 0.000000 10.000000 
Rope2_Seg04 0.000000 0.000000 0.000000 0.000000 0.000000 0.000000 10.000000 
Rope2_Seg05 0.000000 0.000000 0.000000 0.000000 0.000000 0.000000 10.000000 
Rope2_Seg06 0.000000 0.000000 0.000000 0.000000 0.000000 0.000000 10.000000 
Rope2_Seg07 0.000000 0.000000 0.000000 0.000000 0.000000 0.000000 10.000000 
Rope2_Seg09 0.000000 0.000000 0.000000 0.000000 0.000000 0.000000 10.000000 
R_mid_hand01 0.000000 0.000000 0.000000 0.000000 0.000000 0.000000 10.000000 
R_mid_hand02 0.000000 0.000000 0.000000 0.000000 0.000000 0.000000 10.000000 
R_mid_hand03 0.000000 0.000000 0.000000 0.000000 0.000000 0.000000 10.000000 
spine02 0.000000 0.000000 0.000000 0.000000 0.000000 0.000000 10.000000 
spine03 0.000000 0.000000 0.000000 0.000000 0.000000 0.000000 10.000000 
pelvis 0.000000 0.000000 0.000000 0.000000 0.000000 0.000000 10.000000 
null_rope03_connect 0.000000 0.000000 0.000000 0.000000 0.000000 0.000000 10.000000 
null_rope04_connect 0.000000 0.000000 0.000000 0.000000 0.000000 0.000000 10.000000 
Rope3_Seg01 0.000000 0.000000 0.000000 0.000000 0.000000 0.000000 10.000000 
Rope3_Seg02 0.000000 0.000000 0.000000 0.000000 0.000000 0.000000 10.000000 
Rope3_Seg03 0.000000 0.000000 0.000000 0.000000 0.000000 0.000000 10.000000 
Rope3_Seg04 0.000000 0.000000 0.000000 0.000000 0.000000 0.000000 10.000000 
Rope3_Seg05 0.000000 0.000000 0.000000 0.000000 0.000000 0.000000 10.000000 
Rope3_Seg06 0.000000 0.000000 0.000000 0.000000 0.000000 0.000000 10.000000 
Rope3_Seg07 0.000000 0.000000 0.000000 0.000000 0.000000 0.000000 10.000000 
Rope3_Seg08 0.000000 0.000000 0.000000 0.000000 0.000000 0.000000 10.000000 
Rope3_Seg09 0.000000 0.000000 0.000000 0.000000 0.000000 0.000000 10.000000 
R_rear_hand01 0.000000 0.000000 0.000000 0.000000 0.000000 0.000000 10.000000 
R_rear_hand02 0.000000 0.000000 0.000000 0.000000 0.000000 0.000000 10.000000 
R_rear_hand03 0.000000 0.000000 0.000000 0.000000 0.000000 0.000000 10.000000 
Rope4_Seg01 0.000000 0.000000 0.000000 0.000000 0.000000 0.000000 10.000000 
Rope4_Seg02 0.000000 0.000000 0.000000 0.000000 0.000000 0.000000 10.000000 
Rope4_Seg03 0.000000 0.000000 0.000000 0.000000 0.000000 0.000000 10.000000 
Rope4_Seg04 0.000000 0.000000 0.000000 0.000000 0.000000 0.000000 10.000000 
Rope4_Seg05 0.000000 0.000000 0.000000 0.000000 0.000000 0.000000 10.000000 
Rope4_Seg06 0.000000 0.000000 0.000000 0.000000 0.000000 0.000000 10.000000 
Rope4_Seg07 0.000000 0.000000 0.000000 0.000000 0.000000 0.000000 10.000000 
Rope4_Seg08 0.000000 0.000000 0.000000 0.000000 0.000000 0.000000 10.000000 
Rope4_Seg09 0.000000 0.000000 0.000000 0.000000 0.000000 0.000000 10.000000 
L_rear_hand01 0.000000 0.000000 0.000000 0.000000 0.000000 0.000000 10.000000 
L_rear_hand02 0.000000 0.000000 0.000000 0.000000 0.000000 0.000000 10.000000 
L_rear_hand03 0.000000 0.000000 0.000000 0.000000 0.000000 0.000000 10.000000 
#Beginning of Data. Separated by tabs
#Fr	Tx	Ty	Tz	Rx	Ry	Rz	SF
[MASTER]
82 -4421.305176 -1115.494995 55.438923 0.001660 0.001660 0.001660 4560.190918
83 -4444.373047 -1145.570190 45.601551 0.001660 0.001660 0.001660 4589.865234
[root]
82 -16.502380 -62.822109 1311.647949 -71.282272 -38.777504 -97.702316 1313.255127
83 -16.502380 -62.822037 1335.615601 -75.341415 -36.178783 -92.616112 1337.194092
[chest]
82 -84.512650 -34.090519 0.000000 -0.590437 1.469780 174.379608 91.129311
83 -84.512650 -34.090519 0.000000 -1.057985 1.122097 173.480362 91.129311
[L_mid_tent01]
82 27.299614 22.177504 -249.918228 9.040104 45.364582 80.739410 252.381119
83 27.299616 22.177504 -249.918228 5.923566 43.287918 76.652924 252.381119
[R_mid_tent01]
82 23.228794 24.509907 226.238495 172.048477 -30.504896 62.007198 228.744751
83 23.228794 24.509907 226.238495 172.517502 -30.612167 61.086246 228.744751
[spine01]
82 -0.361383 -0.195265 0.000000 0.001845 0.001451 13.654368 0.410763
83 -0.361383 -0.195265 0.000000 0.001845 0.001451 13.654368 0.410763
[Bip01_Neck]
82 165.484543 71.581718 0.000119 176.643677 -1.657967 43.431911 180.302734
83 165.484543 71.581718 0.000119 176.643677 -1.657967 43.431911 180.302734
[L_humerus]
82 -13.983130 -135.272980 -120.471481 -177.831100 9.904612 -87.016533 181.680161
83 -13.983130 -135.272980 -120.471481 -178.340469 12.602234 -87.528740 181.680161
[R_humerus]
82 -13.983309 -135.273102 125.287651 -174.771805 2.985854 -98.800400 184.909012
83 -13.983309 -135.273102 125.287651 -174.279907 1.758843 -99.260323 184.909012
[weapon_bone]
82 235.964890 -300.705902 0.000000 0.000000 -89.951546 -128.212341 382.234833
83 235.964890 -300.705902 0.000000 0.000000 -89.951546 -128.212341 382.234833
[Bip01_Head]
82 213.442963 185.718216 11.739778 -18.480032 -11.447401 -23.569363 283.173065
83 213.443008 185.718109 11.741199 -18.809443 -11.561131 -26.198179 283.173065
[eye_left_bone]
82 -24.626970 125.451866 -64.772606 0.000000 -90.000000 -99.840431 143.318359
83 -24.626970 125.451866 -64.772606 0.000000 -90.000000 -99.840431 143.318359
[eye_right_bone]
82 -24.626970 125.451866 64.327362 0.000000 -89.965736 80.156380 143.117676
83 -24.626970 125.451866 64.327362 0.000000 -89.965736 80.156380 143.117676
[L_forearm]
82 322.776093 0.000000 -0.000119 0.000119 -0.002344 -95.807457 322.776093
83 322.776093 0.000000 -0.000119 0.000119 -0.002344 -95.807457 322.776093
[L_front_hand]
82 241.149185 -0.042021 -3.300071 149.893951 -1.837326 -27.423067 241.171753
83 241.149185 -0.042021 -3.300071 149.893951 -1.837326 -27.423067 241.171753
[L_weapon_bone]
82 156.183838 0.000000 0.000000 0.000014 0.000007 0.000001 156.183838
83 156.183838 0.000000 0.000000 0.000014 0.000007 0.000001 156.183838
[L_front_hand01_01]
82 86.095154 20.947098 -0.655860 -0.366594 -0.477154 75.385574 88.609184
83 86.095154 20.947098 -0.655860 -0.366594 -0.477154 75.385574 88.609184
[L_front_hand02_01]
82 86.935165 -11.437475 24.513514 154.399796 -59.883835 -61.369587 91.046425
83 86.935165 -11.437475 24.513514 154.399796 -59.883835 -61.369587 91.046425
[L_front_hand03_01]
82 86.637497 -14.123976 -20.424902 -153.913849 58.118122 -62.702866 90.126129
83 86.637497 -14.123976 -20.424902 -153.913849 58.118122 -62.702866 90.126129
[L_front_hand01_02]
82 71.020905 -0.000179 0.000030 0.000334 -0.002323 -106.379684 71.020905
83 71.020905 -0.000179 0.000030 0.000334 -0.002323 -106.379684 71.020905
[L_front_hand02_02]
82 71.020927 -0.000119 0.000060 0.000334 -0.002323 -106.379684 71.020927
83 71.020927 -0.000119 0.000060 0.000334 -0.002323 -106.379684 71.020927
[L_front_hand03_02]
82 71.020905 -0.000060 0.000060 0.000334 -0.002323 -106.379684 71.020905
83 71.020905 -0.000060 0.000060 0.000334 -0.002323 -106.379684 71.020905
[R_forearm]
82 322.776428 -0.000060 0.000030 0.167067 -0.129920 -53.515938 322.776428
83 322.776428 -0.000060 0.000030 0.189537 -0.095697 -63.722626 322.776428
[R_front_hand]
82 238.847015 -0.006795 2.210259 -8.879457 -10.642941 -26.315098 238.857239
83 238.847015 -0.006795 2.210259 -8.879457 -10.642941 -26.315098 238.857239
[R_weapon_bone]
82 155.664093 0.002503 -0.000030 0.003487 0.001180 -90.988930 155.664078
83 155.664093 0.002503 -0.000030 0.003487 0.001180 -90.988930 155.664078
[R_front_hand01_01]
82 87.624611 14.231146 22.918642 -154.633499 -59.950619 61.746044 91.683487
83 87.624611 14.231146 22.918642 -154.633499 -59.950619 61.746044 91.683487
[R_front_hand02_01]
82 89.356956 14.367283 -19.491137 154.602661 58.302849 63.744389 92.579636
83 89.356956 14.367283 -19.491137 154.602661 58.302849 63.744389 92.579636
[R_front_hand03_01]
82 87.286232 -22.307278 -0.143439 0.162155 -0.423168 -75.767921 90.091743
83 87.286232 -22.307278 -0.143439 0.162155 -0.423168 -75.767921 90.091743
[R_front_hand01_02]
82 71.020905 0.000060 0.000119 0.002323 -0.000334 106.381714 71.020905
83 71.020905 0.000060 0.000119 0.002323 -0.000334 106.381714 71.020905
[R_front_hand02_02]
82 71.020844 -0.000030 -0.000119 0.002323 -0.000334 106.381714 71.020836
83 71.020844 -0.000030 -0.000119 0.002323 -0.000334 106.381714 71.020836
[R_front_hand03_02]
82 71.020905 0.000000 0.000030 0.002323 -0.000334 106.381714 71.020905
83 71.020905 0.000000 0.000030 0.002323 -0.000334 106.381714 71.020905
[null_rope01_connect]
82 328.732483 0.000000 -0.000238 -104.711067 -53.254131 153.086548 328.732483
83 328.732483 0.000000 -0.000238 -111.590195 -57.165058 161.083298 328.732483
[Rope1_Seg01]
82 0.000000 0.000000 0.000000 115.730522 10.427746 -177.877563 0.000000
83 0.000000 0.000000 0.000000 114.739380 9.273721 -175.152130 0.000000
[Rope1_Seg02]
82 139.999863 -0.000179 0.000000 18.291651 -18.051218 -17.182493 139.999863
83 139.999863 -0.000179 0.000000 18.088753 -14.832176 -16.810417 139.999863
[Rope1_Seg03]
82 139.999924 0.000060 -0.000060 21.688560 -28.744373 -21.007206 139.999924
83 139.999924 0.000060 -0.000060 22.095900 -22.080887 -19.685467 139.999924
[Rope1_Seg04]
82 139.999924 -0.000060 -0.000119 4.636318 -19.506613 -3.126195 139.999924
83 139.999924 -0.000060 -0.000119 7.086740 -18.509495 -3.067327 139.999924
[Rope1_Seg05]
82 139.999832 0.000119 -0.000060 -0.886099 -7.758665 12.309423 139.999832
83 139.999832 0.000119 -0.000060 -1.418586 -9.828962 13.548009 139.999832
[Rope1_Seg06]
82 139.999954 0.000119 -0.000060 -0.037225 -5.911184 10.164186 139.999954
83 139.999954 0.000119 -0.000060 -0.491491 -6.973819 8.810443 139.999954
[Rope1_Seg07]
82 139.999985 0.000060 0.000000 -0.157780 -4.393462 5.057699 139.999985
83 139.999985 0.000060 0.000000 -0.292110 -4.576405 4.375059 139.999985
[Rope1_Seg09]
82 121.602913 0.000119 -0.000089 -89.793175 -1.359789 0.847147 121.602913
83 121.602913 0.000119 -0.000089 -89.793175 -1.359789 0.847147 121.602913
[L_mid_hand01]
82 103.859421 1.038730 8.195221 130.544373 -67.584534 -38.866943 104.187431
83 103.859421 1.038730 8.195221 130.544373 -67.584534 -38.866943 104.187431
[L_mid_hand02]
82 105.572853 -4.139662 -10.864139 -168.923172 43.409309 -73.498886 106.211075
83 105.572853 -4.139662 -10.864139 -168.923172 43.409309 -73.498886 106.211075
[L_mid_hand03]
82 104.641464 17.579376 -3.913581 -6.012627 17.808178 74.893677 106.179977
83 104.641464 17.579376 -3.913581 -6.012627 17.808174 74.893669 106.179977
[null_rope02_connect]
82 328.732849 0.000179 -0.000119 -114.987221 50.430569 -8.896620 328.732849
83 328.732849 0.000179 -0.000119 -113.375420 49.264114 -3.835538 328.732849
[Rope2_Seg01]
82 0.000250 0.000268 0.000000 -10.680809 3.085693 -30.978676 0.000366
83 0.000252 0.000270 0.000000 -28.066826 6.474569 -25.151352 0.000369
[Rope2_Seg02]
82 139.999741 -0.000060 -0.000119 -39.745564 6.449170 17.900677 139.999756
83 139.999741 -0.000060 -0.000119 -32.651405 4.248732 16.228388 139.999756
[Rope2_Seg03]
82 140.000107 0.000030 0.000000 -35.019413 -15.690790 56.132782 140.000107
83 140.000107 0.000030 0.000000 -36.333225 -13.885153 60.816368 140.000107
[Rope2_Seg04]
82 139.999802 0.000000 -0.000060 -5.065446 -26.882639 24.978678 139.999802
83 139.999802 0.000000 -0.000060 -4.996554 -28.514055 28.893866 139.999802
[Rope2_Seg05]
82 139.999985 -0.000060 0.000119 -0.284670 -11.118305 5.646755 139.999985
83 139.999985 -0.000060 0.000119 -0.990746 -13.185442 5.649771 139.999985
[Rope2_Seg06]
82 139.999893 -0.000030 -0.000119 0.583737 -5.043797 3.313122 139.999893
83 139.999893 -0.000030 -0.000119 0.312420 -6.120535 3.269096 139.999893
[Rope2_Seg07]
82 139.999893 0.000060 -0.000060 0.478467 -2.831085 1.929266 139.999893
83 139.999893 0.000060 -0.000060 0.510150 -3.257291 1.956451 139.999893
[Rope2_Seg09]
82 121.338966 0.000089 -0.000060 33.793236 -1.359788 -0.847141 121.338966
83 121.338966 0.000089 -0.000060 33.793236 -1.359788 -0.847141 121.338966
[R_mid_hand01]
82 104.680779 11.144459 -10.335981 -16.212063 45.237247 70.462852 105.778534
83 104.680779 11.144459 -10.335981 -16.212063 45.237247 70.462852 105.778534
[R_mid_hand02]
82 104.070427 2.443552 8.231699 49.067368 -67.749771 39.286453 104.424065
83 104.070427 2.443552 8.231699 49.067368 -67.749771 39.286453 104.424065
[R_mid_hand03]
82 106.028137 -11.221827 -5.996406 -177.101105 15.551026 -76.585571 106.788818
83 106.028137 -11.221827 -5.996406 -177.101105 15.551026 -76.585571 106.788818
[spine02]
82 129.756927 0.001550 0.000119 -1.023899 -3.926965 6.770993 129.756927
83 129.756927 0.001550 0.000119 -1.023899 -3.926965 6.770993 129.756927
[spine03]
82 78.613754 0.087396 -4.898728 1.040681 4.146420 4.212376 78.766281
83 78.613754 0.087397 -4.898726 1.040680 4.146419 4.212375 78.766281
[pelvis]
82 169.435242 0.051022 0.000000 0.019518 -0.190233 -10.721436 169.435257
83 169.435242 0.051022 0.000000 0.019518 -0.190233 -10.721436 169.435257
[null_rope03_connect]
82 -1.257226 -2.466202 137.391083 15.680262 -75.190208 100.233406 137.418976
83 -1.257226 -2.466202 137.391083 27.057970 -77.019249 85.555901 137.418976
[null_rope04_connect]
82 -1.259640 -2.480268 -137.844437 15.680262 -75.190208 100.233406 137.872513
83 -1.259640 -2.480268 -137.844437 27.057970 -77.019249 85.555901 137.872513
[Rope3_Seg01]
82 -0.000005 0.000097 -0.000153 -152.042221 -39.336308 -48.976875 0.000181
83 -0.000004 0.000099 -0.000153 -149.805984 -33.411556 -46.312653 0.000182
[Rope3_Seg02]
82 139.999924 -0.000119 0.000060 -23.139004 -0.703946 -33.134319 139.999924
83 139.999924 -0.000119 0.000060 -23.722088 -0.592747 -31.563339 139.999924
[Rope3_Seg03]
82 139.999924 -0.000119 0.000119 -58.875854 11.282186 -29.532225 139.999924
83 139.999924 -0.000119 0.000119 -62.714485 12.575714 -30.409464 139.999924
[Rope3_Seg04]
82 139.999924 0.000119 0.000000 -40.137264 39.870377 -10.233768 139.999924
83 139.999924 0.000119 0.000000 -36.323956 38.284103 -7.760631 139.999924
[Rope3_Seg05]
82 139.999924 -0.000238 0.000060 -2.892407 22.183294 10.669648 139.999924
83 139.999924 -0.000238 0.000060 -3.356716 20.547594 9.250834 139.999924
[Rope3_Seg06]
82 139.999893 -0.000119 -0.000060 0.112664 6.285369 3.554869 139.999893
83 139.999893 -0.000119 -0.000060 -0.040761 6.126249 3.372810 139.999893
[Rope3_Seg07]
82 139.999771 0.000060 -0.000119 0.453375 3.506344 1.984960 139.999771
83 139.999771 0.000060 -0.000119 0.366470 3.463490 1.917797 139.999771
[Rope3_Seg08]
82 139.999985 -0.000060 0.000000 0.539829 1.965098 1.094211 139.999985
83 139.999985 -0.000060 0.000000 0.489788 1.950834 1.068557 139.999985
[Rope3_Seg09]
82 90.185997 -0.000179 -0.000060 89.793228 -1.359877 -0.847183 90.185997
83 90.185997 -0.000179 -0.000060 89.793228 -1.359877 -0.847183 90.185997
[R_rear_hand01]
82 103.366196 -6.073594 -10.757982 -177.714203 24.565960 -73.910950 104.101845
83 103.366196 -6.073594 -10.757982 -177.714203 24.565960 -73.910950 104.101845
[R_rear_hand02]
82 100.509819 12.039542 -7.992327 -12.874829 36.868488 72.167213 101.543350
83 100.509819 12.039542 -7.992327 -12.874829 36.868488 72.167213 101.543350
[R_rear_hand03]
82 101.539970 5.215704 5.435467 71.484581 -71.816628 21.513813 101.819031
83 101.539970 5.215704 5.435467 71.484581 -71.816628 21.513813 101.819031
[Rope4_Seg01]
82 0.000000 0.000116 0.000000 91.202393 -33.293846 -163.222275 0.000116
83 0.000000 0.000117 0.000000 90.865845 -38.093098 -157.214722 0.000117
[Rope4_Seg02]
82 139.999985 0.000060 0.000119 76.792747 -28.943172 -10.055276 139.999985
83 139.999985 0.000060 0.000119 40.043594 -28.974974 -3.844840 139.999985
[Rope4_Seg03]
82 139.999924 0.000000 -0.000238 84.627609 -20.464836 36.678154 139.999924
83 139.999924 0.000000 -0.000238 95.168610 -31.867744 23.920778 139.999924
[Rope4_Seg04]
82 139.999985 0.000000 0.000119 6.378974 21.418228 16.355616 139.999985
83 139.999985 0.000000 0.000119 14.460550 21.513256 26.050531 139.999985
[Rope4_Seg05]
82 139.999802 -0.000060 -0.000119 1.238556 9.016107 6.542424 139.999802
83 139.999802 -0.000060 -0.000119 2.262468 11.460366 9.779921 139.999802
[Rope4_Seg06]
82 139.999924 0.000000 0.000060 0.317548 4.061651 2.626092 139.999924
83 139.999924 0.000000 0.000060 0.419828 4.551995 3.542997 139.999924
[Rope4_Seg07]
82 139.999802 0.000000 0.000000 0.215179 2.521382 1.609224 139.999802
83 139.999802 0.000000 0.000000 0.224725 2.728282 2.094781 139.999802
[Rope4_Seg08]
82 139.999924 0.000000 0.000119 -1.425506 1.487398 0.942775 139.999924
83 139.999924 0.000000 0.000119 -1.431135 1.574838 1.203797 139.999924
[Rope4_Seg09]
82 90.185791 0.000060 0.000060 -135.617828 2.228885 0.850567 90.185791
83 90.185791 0.000060 0.000060 -135.617828 2.228885 0.850567 90.185791
[L_rear_hand01]
82 101.696655 -8.392275 -7.654577 -12.874829 -36.868488 107.832764 102.329041
83 101.696655 -8.392275 -7.654577 -12.874829 -36.868488 107.832764 102.329041
[L_rear_hand02]
82 102.726799 -1.568258 5.773216 71.484581 71.816628 158.486160 102.900848
83 102.726799 -1.568258 5.773216 71.484581 71.816628 158.486160 102.900848
[L_rear_hand03]
82 104.552910 9.721220 -10.420293 -177.714203 -24.565960 -106.089035 105.519653
83 104.552910 9.721220 -10.420293 -177.714203 -24.565960 -106.089035 105.519653
